<?xml version="1.0" encoding="UTF-8"?>
<svg width="24" height="24" viewBox="0 0 24 24" fill="none" xmlns="http://www.w3.org/2000/svg">
    <path d="M16.89 8.53l1.41-1.42c.9 1.16 1.46 2.5 1.63 3.89h-2.02c-.14-.87-.49-1.72-1.02-2.47zM17.91 13h2.02c-.17 1.39-.72 2.73-1.62 3.89l-1.41-1.42c.52-.75.87-1.59 1.01-2.47zm-1.01 5.32c-1.16.9-2.51 1.44-3.9 1.61V17.9c.87-.15 1.71-.49 2.46-1.03l1.44 1.45zM11 4.07V1l4.55 4.55L11 10V6.09c-2.84.48-5 2.94-5 5.91s2.16 5.43 5 5.91v2.02c-3.95-.49-7-3.85-7-7.93s3.05-7.44 7-7.93z" fill="white"/>
</svg> 